# xmcd
#
# Track frame offsets:
#	150
#	17184
#	30157
#	44598
#	56745
#	73682
#	83863
#	91695
#	110648
#	122989
#	140674
#	152140
#	162326
#	173307
#	188325
#	200754
#	220111
#	234207
#	244949
#	269181
#	280970
#	293766
#	311383
#	321193
#
# Disc length: 4571 seconds
#
# Revision: 6
# Processed by: cddbd v1.5.2PL0 Copyright (c) Steve Scherf et al.
# Submitted via: EZCDAudioConverter 2.1.7.1
#
DISCID=5a11d918
DTITLE=V/A - Children Of Nuggets 4/4
DYEAR=2005
DGENRE=
TTITLE0=Primal Scream - Gentle Tuesday
TTITLE1=The Three O'Clock - With A Cantaloupe Girlfriend
TTITLE2=Hoodoo Gurus - Like Wow - Wipeout!
TTITLE3=The Fuzztones - Bad News Travels Fast
TTITLE4=Sun Dial - Plains Of Nazca [Single]
TTITLE5=The Bangs - Getting Out Of Hand
TTITLE6=Mickey and The Milkshakes - Please Don't Tell My Baby
TTITLE7=Rain Parade - One Half Hour Ago
TTITLE8=The Aardvarks - You're My Loving Way
TTITLE9=Screaming Trees - Transfiguration
TTITLE10=United States Of Existence - A Scandal In Bohemia
TTITLE11=The Nomads - Where The Wolf Bane Blooms
TTITLE12=The Vipers - Cheated And Lied
TTITLE13=The Dentists - Strawberries Are Growing In My Garden (And It's Winter
TTITLE13=time)
TTITLE14=Tell-Tale Hearts - Won't Need Yours
TTITLE15=Inspiral Carpets - Weakness
TTITLE16=Miracle Workers - You'll Know Why
TTITLE17=The Unknowns - Not My Memory
TTITLE18=The Prisoners - Far Away
TTITLE19=Optic Nerve - Ain't That A Man
TTITLE20=Plasticland - Mink Dress
TTITLE21=The Raybeats - Tight Turn [Album Version]
TTITLE22=The Nerves - One Way Ticket
TTITLE23=The Wondermints - Tracy Hide [Cover Version]
EXTD=
EXTT0=
EXTT1=
EXTT2=
EXTT3=
EXTT4=
EXTT5=
EXTT6=
EXTT7=
EXTT8=
EXTT9=
EXTT10=
EXTT11=
EXTT12=
EXTT13=
EXTT14=
EXTT15=
EXTT16=
EXTT17=
EXTT18=
EXTT19=
EXTT20=
EXTT21=
EXTT22=
EXTT23=
PLAYORDER=
